<svg width="40" height="40" viewBox="0 0 40 40" fill="none" xmlns="http://www.w3.org/2000/svg">
    <path d="M39.4014 24.8382C36.7298 35.5525 25.8768 42.0731 15.16 39.4012C4.44764 36.73 -2.07368 25.8776 0.599102 15.164C3.26939 4.44845 14.1224 -2.07273 24.8361 0.598491C35.5522 3.26971 42.0729 14.1234 39.4014 24.8382Z" fill="url(#paint0_linear_2752_351)"/>
    <path fill-rule="evenodd" clip-rule="evenodd" d="M19.0207 6.31772C19.3288 6.27649 19.8305 6.30412 20.1512 6.30636C24.5313 6.33684 29.5492 8.98359 29.8547 13.9173L27.0822 13.9189C26.9709 12.8343 26.4698 11.889 25.7229 11.1127C24.4221 9.78885 22.7865 9.05456 20.9451 8.97051C18.9558 8.87969 17.1037 10.3118 17.3823 12.4513C17.6451 14.4697 20.3694 15.6905 22.0147 16.47C22.8953 16.8807 23.7696 17.3051 24.6373 17.7431C27.8979 19.4285 30.4834 21.5421 30.484 25.5366C30.4723 27.4699 29.7004 29.3192 28.3395 30.675C26.0709 32.9627 22.8147 33.7148 19.7078 33.7043C14.6454 33.7453 9.91806 30.8873 9.51599 25.42H12.3241C12.3969 26.8748 13.132 28.1801 14.1829 29.1413C15.6161 30.4527 17.6077 31.1549 19.5344 31.0541C20.5096 31.003 21.4981 30.7413 22.1776 29.9805C22.759 29.3296 22.9354 28.4986 22.8934 27.6416C22.7819 25.3682 19.9994 24.1183 18.1983 23.3001C17.3962 22.9437 16.5989 22.5763 15.8065 22.1981C12.6794 20.6736 9.97712 18.7166 9.78918 14.9195C9.68676 12.8498 10.2742 11.0302 11.6626 9.48652C13.5465 7.39176 16.2923 6.48155 19.0207 6.31772ZM15.8428 9.53625C13.2684 10.4382 11.945 13.3196 12.8087 15.9172C13.5098 18.0259 15.8205 19.2721 17.6845 20.1755C18.4333 20.5296 19.1845 20.8784 19.9379 21.222C21.9303 22.1417 24.5705 23.4206 25.3438 25.6588C25.7574 26.8562 25.6364 28.2746 25.1014 29.4173C25.0246 29.5809 24.9309 29.7486 24.8291 29.8982C24.769 29.9866 24.6051 30.1668 24.5668 30.2461C25.6862 29.8948 26.5621 29.0406 27.0992 28.0017C27.7283 26.7744 27.8526 25.3447 27.4448 24.0248C26.5188 21.0448 22.8918 19.8252 20.369 18.6479C18.2809 17.6736 15.6492 16.5747 14.8735 14.1452C14.3544 12.5195 14.8227 10.8644 15.8604 9.56077L15.8428 9.53625Z" fill="white"/>
    <defs>
        <linearGradient id="paint0_linear_2752_351" x1="20" y1="0" x2="20" y2="40" gradientUnits="userSpaceOnUse">
            <stop stop-color="#FF895C"/>
            <stop offset="1" stop-color="#FFC838"/>
        </linearGradient>
    </defs>
</svg>
